# xmcd CD database file
#
# Track frame offsets:
#	150
#	13532
#	18312
#	30115
#	42625
#	53035
#	60667
#	71602
#	81762
#	98270
#	110162
#	121975
#	130340
#	144177
#	154630
#	169232
#	174030
#	187932
#	199902
#	220380
#
# Disc length: 3145 seconds
#
# Revision: 2
# Processed by: cddbd v1.5.1PL2 Copyright (c) Steve Scherf et al.
# Submitted via: CDex 1.51
#
DISCID=030c4714
DTITLE=テレビ朝日系テレビまんが「ドラえもん」から - ドラえもん誕生
DYEAR=1990
DGENRE=Anime
TTITLE0=[大杉久美子] ドラえもんのうた
TTITLE1=[大山のぶ代] ドラえもん・えかきうた
TTITLE2=[大杉久美子] 青い空はポケットさ
TTITLE3=[大山のぶ代，こおろぎ'73] ドラえもん音頭
TTITLE4=[大山のぶ代，こおろぎ'73] ぼくドラえもん
TTITLE5=[小原乃梨子，肝付兼太，たてかべ和也]ワンパク三人組
TTITLE6=[大杉久美子] いいやつなんだよドラえもん
TTITLE7=[こおろぎ'73，コロムビアゆりかご会] ドラえもんマーチ
TTITLE8=[大山のぶ代] ドラえもんじゃあニィ
TTITLE9=[大杉久美子] ドラえもんの夢
TTITLE10=[大山のぶ代，こおろぎ'73] ドラえもん数えうた
TTITLE11=[大杉久美子] ドラドラどこかにドラえもん
TTITLE12=[こおろぎ'73] すてきな一週間
TTITLE13=[大山のぶ代] ドラえもんにゅうイヤー
TTITLE14=[こおろぎ'73] ぽけっとポッポッポー
TTITLE15=[横沢啓子] ドラミちゃんのえかきうた
TTITLE16=[大杉久美子] ゾウさんの瞳はなぜ青い
TTITLE17=[こおろぎ'73] ドラえもんしりとりうた
TTITLE18=[大杉久美子] ドラえもん子守唄
TTITLE19=[こおろぎ'73] うきうきタイムトラベル
EXTD=YEAR: 1990
EXTT0=
EXTT1=
EXTT2=
EXTT3=
EXTT4=
EXTT5=
EXTT6=
EXTT7=
EXTT8=
EXTT9=
EXTT10=
EXTT11=
EXTT12=
EXTT13=
EXTT14=
EXTT15=
EXTT16=
EXTT17=
EXTT18=
EXTT19=
PLAYORDER=
